<?xml version="1.0" encoding="utf-8"?>
<!-- Generator: Adobe Illustrator 19.2.0, SVG Export Plug-In . SVG Version: 6.00 Build 0)  -->
<svg version="1.1" id="Layer_1" xmlns="http://www.w3.org/2000/svg" xmlns:xlink="http://www.w3.org/1999/xlink" x="0px" y="0px"
	 viewBox="0 0 20 20" style="enable-background:new 0 0 20 20;" xml:space="preserve">
<style type="text/css">
	.st0{fill-rule:evenodd;clip-rule:evenodd;fill:#EE4623;}
</style>
<path class="st0" d="M18.2,0H1.8C0.8,0,0,0.7,0,1.7v16.5C0,19.1,0.8,20,1.8,20H10c0-1,0-5,0-9H8V8h2V6.5c0-1.4,0.5-3.6,3.5-3.6
	l2.5,0V6c0,0-1.6,0-1.9,0C13.8,6,13,6,13,6.7V8h3.1l0,3H13c0,4,0,8,0,9h5.2c0.9,0,1.8-0.9,1.8-1.8V1.7C20,0.7,19.2,0,18.2,0z"/>
</svg>
