<?xml version="1.0" encoding="utf-8"?>
<!-- Generator: Adobe Illustrator 19.2.0, SVG Export Plug-In . SVG Version: 6.00 Build 0)  -->
<svg version="1.1" id="Layer_1" xmlns="http://www.w3.org/2000/svg" xmlns:xlink="http://www.w3.org/1999/xlink" x="0px" y="0px"
	 viewBox="0 0 20 20" style="enable-background:new 0 0 20 20;" xml:space="preserve">
<style type="text/css">
	.st0{fill:#EE4623;}
</style>
<g>
	<g>
		<g>
			<path class="st0" d="M19.4,2.3c-0.8,0.5-1.7,0.8-2.6,1C16.1,2.5,15,2,13.8,2c-2.3,0-4.1,1.8-4.1,4c0,0.3,0,0.6,0.1,0.9
				C6.4,6.8,3.4,5.2,1.4,2.7C1,3.3,0.8,4,0.8,4.8c0,1.4,0.7,2.6,1.8,3.4C2,8.1,1.4,7.9,0.8,7.6c0,0,0,0,0,0.1c0,2,1.4,3.6,3.3,4
				c-0.3,0.1-0.7,0.1-1.1,0.1c-0.3,0-0.5,0-0.8-0.1c0.5,1.6,2,2.8,3.8,2.8c-1.4,1.1-3.2,1.7-5.1,1.7c-0.3,0-0.7,0-1-0.1
				C1.8,17.3,4,18,6.3,18C13.8,18,18,11.8,18,6.5c0-0.2,0-0.3,0-0.5c0.8-0.6,1.5-1.3,2-2.1c-0.7,0.3-1.5,0.5-2.4,0.6
				C18.5,4,19.1,3.2,19.4,2.3z"/>
		</g>
	</g>
</g>
</svg>
